<?xml version="1.0" encoding="iso-8859-1"?>
<!-- Generator: Adobe Illustrator 17.1.0, SVG Export Plug-In . SVG Version: 6.00 Build 0)  -->
<!DOCTYPE svg PUBLIC "-//W3C//DTD SVG 1.1//EN" "http://www.w3.org/Graphics/SVG/1.1/DTD/svg11.dtd">
<svg version="1.1" id="Capa_1" xmlns="http://www.w3.org/2000/svg" xmlns:xlink="http://www.w3.org/1999/xlink" x="0px" y="0px"
	 viewBox="0 0 284.559 284.559" style="enable-background:new 0 0 284.559 284.559;" xml:space="preserve">
<path d="M160.219,40.968c0,9.248-7.523,16.771-16.771,16.771c-9.248,0-16.771-7.523-16.771-16.771s7.523-16.771,16.771-16.771
	C152.696,24.197,160.219,31.72,160.219,40.968z M284.04,126.797c-0.927-2.983-2.96-5.429-5.725-6.883
	c-1.702-0.896-3.529-1.35-5.431-1.35c-4.365,0-8.338,2.485-10.367,6.344l-44.914,85.454h-16.918l40.626-77.283l-70.798-25.135
	v102.418h-15V88.541c0-6.45-5.55-11.697-12-11.697s-12,5.247-12,11.697v121.821h-15V108.024L43.512,133.98l40.347,76.383H66.962
	l-44.914-85.454c-2.029-3.858-6.003-6.299-10.368-6.299c-1.901,0-3.729,0.432-5.431,1.327c-5.708,3.003-7.909,10.079-4.905,15.787
	l39.016,74.518c-3.743,0.422-6.847,3.588-6.847,7.443v34.894c0,4.143,3.747,7.784,7.89,7.784h201.76
	c4.143,0,7.351-3.642,7.351-7.784v-34.894c0-3.855-2.835-7.027-6.577-7.449l39.247-74.524
	C284.638,132.948,284.966,129.782,284.04,126.797z"/>
</svg>
