<svg id="Layer_1" enable-background="new 0 0 512 512" height="512" viewBox="0 0 512 512" width="512" xmlns="http://www.w3.org/2000/svg"><path d="m271 410.2c16.199-8.101 31.5-18.001 45-30v-139.2h-45z"/><path d="m196 380.2c13.5 11.999 28.801 21.899 45 30v-169.2h-45z"/><path d="m166 348.399v-107.399h-43.5c4.2 39.6 19.5 76.8 43.5 107.399z"/><path d="m346 348.399c24-30.599 39.3-67.799 43.5-107.399h-43.5z"/><path d="m318.999 90h-125.998c-15.901 30.899-41.1 56.1-72.001 71.999v49.001h270v-49.001c-30.901-15.899-56.1-41.1-72.001-71.999zm-122.999 96.299-21.301-21.299 21.301-21.301 21.301 21.301zm60 0-21.301-21.299 21.301-21.301 21.301 21.301zm60 0-21.301-21.299 21.301-21.301 21.301 21.301z"/><path d="m466 90c-41.4 0-75-33.6-75-75v-15h-270v15c0 41.4-33.6 75-75 75h-15v127.599c0 135.3 90.838 256.002 220.737 293.202l4.2 1.199 4.2-1.199c129.9-37.2 220.863-157.902 220.863-293.202v-127.599zm-45 127.599c0 101.701-64.2 194.101-159.901 229.501l-5.099 1.8-5.099-1.8c-95.701-35.4-159.901-127.8-159.901-229.501v-74.799l9-4.2c31.201-13.5 56.1-38.401 69.6-69.6l4.2-9h164.4l4.2 9c13.5 31.199 38.399 56.1 69.6 69.6l9 4.2z"/></svg>